<svg xmlns="http://www.w3.org/2000/svg" viewBox="0 0 32 32">
  <defs>
    <linearGradient id="g" x1="0" y1="0" x2="1" y2="1">
      <stop offset="0%" stop-color="#b04a15"/>
      <stop offset="100%" stop-color="#e07b3a"/>
    </linearGradient>
  </defs>
  <rect width="32" height="32" rx="8" fill="url(#g)"/>
  <path d="M16 14C16 14 13 11.2 13 9.2C13 8 14 7.3 15 7.7C15.5 7.9 16 8.5 16 8.5C16 8.5 16.5 7.9 17 7.7C18 7.3 19 8 19 9.2C19 11.2 16 14 16 14Z" fill="white"/>
  <line x1="16" y1="14.5" x2="16" y2="15.5" stroke="white" stroke-width="1.2" stroke-linecap="round" stroke-opacity="0.6"/>
  <path d="M9 20C9 17.5 10.8 16 13 16L19 16C21.2 16 23 17.5 23 20C23 22 20.5 23.5 16 23.5C11.5 23.5 9 22 9 20Z" fill="white" fill-opacity="0.82"/>
</svg>
